<svg width="32" height="32" viewBox="0 0 500 500" fill="none" xmlns="http://www.w3.org/2000/svg">
<path d="M133.545 45.1266C180.83 17.8266 233.837 8.23828 290.879 17.3366C336.139 24.23 368.064 41.8249 382.689 67.1562C403.489 103.183 391.03 147.904 355.566 168.379C345.996 173.904 333.113 177.589 321.507 178.286C313.364 178.483 313.364 178.483 274.772 166.239C252.487 158.84 226.784 162.422 205.393 174.772C162.611 199.472 148.574 251.859 173.274 294.64C197.649 336.859 250.924 351.134 293.143 326.759C310.594 316.684 323.906 300.742 332.042 281.034C334.595 275.056 334.595 275.056 341.083 247.293C345.278 229.859 357.941 212.792 374.265 203.367C409.166 183.217 455.576 194.7 475.401 229.038C489.051 252.681 488.628 284.448 474.782 325.467C455.916 379.891 418.469 425.529 368.932 454.129C255.223 519.779 110.817 481.562 45.8174 368.978C-20.0705 256.157 19.8357 110.777 133.545 45.1266Z" fill="white"/>
</svg>
